<svg width="183" height="183" viewBox="0 0 183 183" fill="none" xmlns="http://www.w3.org/2000/svg">
<rect x="0.5" y="0.5" width="182" height="182" rx="6" fill="#D2ECFF"/>
<path d="M141.741 69.2874C142.564 72.3046 140.985 75.6655 138.199 76.9185C137.362 77.2532 136.738 77.3798 136.136 77.3934C133.861 77.4477 131.812 75.9504 131.147 73.4987L123.099 44.1598L108.661 76.4797C116.513 81.5143 122.389 89.3081 125.438 98.9068C129.088 110.387 128.274 123.062 123.172 134.601C118.069 146.15 109.276 155.183 98.4061 160.036C93.177 162.375 87.767 163.61 82.4157 163.737C76.6574 163.877 70.976 162.732 65.661 160.303C55.4018 155.631 47.7437 146.738 44.1023 135.266C40.461 123.795 41.2661 111.12 46.3686 99.5718C51.48 88.0235 60.2736 78.9992 71.1343 74.1365C76.3589 71.8025 81.7599 70.5766 87.102 70.4454C91.0645 70.3504 94.9909 70.8616 98.786 71.9743L113.225 39.6545L86.2878 53.0438C85.5369 53.4147 84.7634 53.6002 84.0125 53.6183C81.9001 53.668 79.9731 52.3924 79.1725 50.185C78.0778 47.1905 79.5117 43.6079 82.3569 42.1966L122.498 22.2483C123.086 21.9859 123.384 21.8864 123.683 21.8141C124.149 21.7281 124.456 21.6829 124.769 21.6738C125.212 21.6738 125.542 21.701 125.859 21.7688C126.252 21.8548 126.587 21.9588 126.922 22.1126C127.243 22.2574 127.551 22.4383 127.826 22.6509C128.134 22.8906 128.378 23.1213 128.591 23.3701C128.88 23.6958 129.057 23.9627 129.215 24.2431C129.428 24.6457 129.554 24.9352 129.658 25.2473L141.741 69.2829V69.2874ZM114.975 103.589C112.275 95.0664 106.589 88.4577 98.9715 84.9883C95.018 83.1834 90.7931 82.3375 86.514 82.4416C82.5424 82.5366 78.5211 83.4548 74.6355 85.1873C66.5657 88.797 60.0384 95.5052 56.2432 104.082C52.4571 112.654 51.8509 122.08 54.5605 130.598C57.261 139.12 62.9469 145.72 70.5734 149.198C74.5178 150.994 78.7382 151.84 83.0128 151.74C86.9889 151.645 91.0103 150.727 94.8959 148.99C102.966 145.39 109.493 138.672 113.288 130.096C117.074 121.524 117.68 112.111 114.971 103.589" fill="#34ADE2"/>
<path d="M140.65 65.6688C141.473 68.6859 139.894 72.0468 137.108 73.2998C136.271 73.6345 135.647 73.7612 135.045 73.7748C132.77 73.829 130.721 72.3318 130.056 69.8801L122.009 40.5411L107.57 72.861C115.423 77.8956 121.298 85.6895 124.347 95.2882C127.998 106.769 127.183 119.443 122.081 130.983C116.979 142.531 108.185 151.564 97.3153 156.418C92.0862 158.756 86.6761 159.991 81.3249 160.118C75.5666 160.258 69.8852 159.114 64.5702 156.685C54.311 152.012 46.6529 143.119 43.0115 131.647C39.3701 120.176 40.1753 107.501 45.2777 95.9531C50.3892 84.4048 59.1827 75.3806 70.0435 70.5179C75.2681 68.1838 80.669 66.958 86.0112 66.8268C89.9737 66.7318 93.9001 67.2429 97.6952 68.3557L112.134 36.0358L85.197 49.4252C84.4461 49.7961 83.6726 49.9815 82.9217 49.9996C80.8093 50.0494 78.8823 48.7738 78.0816 46.5663C76.987 43.5718 78.4209 39.9893 81.2661 38.578L121.407 18.6297C121.995 18.3673 122.294 18.2678 122.592 18.1954C123.058 18.1095 123.366 18.0642 123.678 18.0552C124.121 18.0552 124.451 18.0823 124.768 18.1502C125.161 18.2361 125.496 18.3402 125.831 18.4939C126.152 18.6387 126.46 18.8196 126.736 19.0322C127.043 19.272 127.287 19.5027 127.5 19.7515C127.79 20.0771 127.966 20.344 128.124 20.6245C128.337 21.0271 128.464 21.3166 128.568 21.6287L140.65 65.6643V65.6688ZM113.885 99.9699C111.184 91.4478 105.498 84.8391 97.8807 81.3696C93.9272 79.5648 89.7023 78.7189 85.4232 78.8229C81.4516 78.9179 77.4303 79.8362 73.5446 81.5686C65.4748 85.1783 58.9475 91.8866 55.1524 100.463C51.3663 109.035 50.7601 118.462 53.4697 126.979C56.1701 135.501 61.8561 142.101 69.4826 145.58C73.427 147.375 77.6474 148.221 81.922 148.122C85.8981 148.027 89.9194 147.109 93.8051 145.372C101.875 141.771 108.402 135.054 112.197 126.477C115.983 117.905 116.59 108.492 113.88 99.9699" fill="#51BCF5"/>
<mask id="mask0_0_150" style="mask-type:luminance" maskUnits="userSpaceOnUse" x="38" y="28" width="121" height="121">
<path d="M158.965 100.508L154.835 72.9742L88.4132 28.5813L38.8545 45.1009L53.0128 106.651C51.2713 113.432 51.4025 120.466 53.4742 126.975C56.1747 135.497 61.8606 142.097 69.4871 145.575C73.4316 147.371 77.6519 148.217 81.9266 148.117C85.9027 148.022 89.924 147.104 93.8096 145.367C100.093 142.563 105.439 137.858 109.289 131.869L146.919 123.908L158.965 100.504V100.508Z" fill="white"/>
</mask>
<g mask="url(#mask0_0_150)">
<path d="M84.1935 118.435C84.1935 118.435 83.5783 160.702 81.484 171.798C79.3897 182.894 67.8232 234.203 67.7011 235.252C61.9157 234.827 56.1347 232.855 56.1347 232.855C56.1347 232.855 55.5421 192.51 61.4497 171.798C62.2006 168.699 61.6397 151.397 61.1331 126.527C61.0607 122.895 62.861 118.629 62.7932 114.694C88.0204 118.394 84.1935 118.435 84.1935 118.435Z" fill="#331A26"/>
<path d="M98.592 110.876C98.592 110.876 101.957 122.501 101.899 135.592C101.831 149.71 101.65 165.791 101.166 171.644C100.239 182.921 95.5116 234.135 95.5025 235.194C89.3959 235.465 83.1128 234.203 83.1128 234.203C83.1128 234.203 78.2999 193.705 82.1222 172.413C82.6198 168.781 74.6043 137.678 72.9668 107.484C99.8133 108.126 98.592 110.876 98.592 110.876Z" fill="#331A26"/>
<path d="M105.287 138.17C105.273 137.994 105.26 137.804 105.246 137.605C105.269 137.79 105.278 137.98 105.287 138.17Z" fill="#BFDED6"/>
<path d="M76.2276 131.381C76.2276 131.381 73.9433 138.094 65.6699 139.55C65.9775 144.377 71.6454 142.386 73.1788 142.002C74.7123 141.617 77.9284 138.478 77.9284 137.637C77.9284 136.795 76.2276 131.381 76.2276 131.381Z" fill="#331A26"/>
<path d="M86.0119 130.449C85.9983 132.579 85.935 134.71 85.8491 136.84C85.8129 137.903 85.7631 138.971 85.6998 140.034C85.6365 141.097 85.5777 142.16 85.4827 143.228L85.1344 143.024C86.1386 142.314 87.1744 141.608 87.7896 140.586C88.1017 140.079 88.3098 139.514 88.4365 138.921C88.5676 138.333 88.6038 137.718 88.6762 137.094C88.821 135.854 89.0064 134.624 89.1874 133.394C89.3773 132.163 89.5809 130.937 89.8116 129.716L89.0697 137.134C89.0064 137.745 88.9748 138.378 88.8436 139.007C88.7169 139.631 88.4953 140.251 88.1605 140.808C87.4911 141.943 86.4054 142.698 85.3877 143.39L84.9941 143.657L85.0394 143.182C85.1434 142.128 85.2158 141.065 85.2927 140.007C85.3605 138.944 85.4329 137.881 85.5189 136.822C85.6681 134.696 85.8265 132.575 86.0119 130.449Z" fill="#443B44"/>
<path d="M85.2656 143.205C85.2656 143.205 85.062 150.216 84.7771 151.958C84.7771 151.958 81.9137 174.245 76.3906 194.758" stroke="#443B44" stroke-width="1.02" stroke-miterlimit="10"/>
<path d="M65.0957 139.93C63.9422 151.207 64.8017 159.403 63.6166 170.499C63.6166 170.499 59.0298 182.206 57.4014 230.29" stroke="#443B44" stroke-width="1.02" stroke-miterlimit="10"/>
<path d="M107.584 99.9384C107.584 99.9384 109.135 108.035 109.253 108.357C113.256 105.389 121.991 98.6945 121.991 98.6945C125.438 103.218 125.899 103.706 125.899 103.706C125.899 103.706 118.657 111.319 115.726 114.653C112.795 117.987 110.207 119.982 107.05 119.783C103.888 119.584 100.27 111.206 100.27 111.206L99.2246 102.408L107.584 99.9429V99.9384Z" fill="#F9A58C"/>
<path d="M92.1823 74.2679C92.1823 74.2679 99.1529 76.697 101.681 78.9678C104.21 81.2386 109.724 98.1697 109.724 98.1697C109.724 98.1697 106.888 103.639 100.953 104.082C95.0139 104.53 94.7109 96.098 95.2446 94.9491C95.7829 93.8001 92.1777 74.2634 92.1777 74.2634L92.1823 74.2679Z" fill="white"/>
<path d="M80.9867 63.0182C80.9867 63.0182 80.3941 63.846 80.4619 67.3335C80.5162 70.1923 79.6387 71.1513 79.6387 71.1513C79.6387 75.2405 82.6287 78.1536 86.5098 77.8188C89.1153 77.5927 90.6894 75.1184 90.4451 72.9335C90.427 72.7617 89.7847 72.3229 90.038 69.4505C90.1421 68.2473 90.4451 67.225 90.4451 67.225C86.1162 68.6544 80.9821 63.0227 80.9821 63.0227L80.9867 63.0182Z" fill="#F9A58C"/>
<path d="M62.8203 139.505C63.5169 139.568 64.209 139.591 64.9011 139.559C65.5932 139.541 66.2807 139.482 66.9638 139.369C68.3208 139.147 69.6552 138.772 70.872 138.148C71.4827 137.84 72.0617 137.478 72.6045 137.067C73.1428 136.651 73.6358 136.176 74.1017 135.669C74.545 135.149 74.9748 134.606 75.3185 134.004C75.6985 133.425 75.988 132.792 76.2866 132.163C75.893 133.502 75.2507 134.782 74.3731 135.9C73.9344 136.456 73.4187 136.954 72.8759 137.411C72.3195 137.854 71.7134 138.234 71.0801 138.559C69.809 139.197 68.4158 139.577 67.0135 139.717C65.6113 139.858 64.1864 139.817 62.8248 139.505H62.8203Z" fill="#443B44"/>
<path d="M95.1365 55.2197C95.1365 55.2197 95.8965 68.9935 86.9808 69.7716C84.5698 70.0294 79.2819 66.3112 78.2777 63.8956C76.31 63.7826 75.4641 62.0275 75.7536 60.1367C76.1291 57.685 78.2596 57.5538 78.9155 58.1735C76.88 56.4003 76.3372 54.1341 77.1921 50.4249C78.0425 46.7111 84.8095 48.4165 86.2525 48.706C87.4015 47.8737 94.7973 47.1183 95.141 55.2197H95.1365Z" fill="#F9A58C"/>
<path d="M91.54 67.6862C90.7891 68.4326 89.898 69.0523 88.9028 69.4594C87.9032 69.8575 86.7949 69.9886 85.7229 69.8348C84.6508 69.672 83.6376 69.2423 82.7419 68.6633C81.8508 68.0752 81.0456 67.356 80.4033 66.5146C81.1406 67.2701 81.9684 67.9305 82.8686 68.4597C83.7688 68.9844 84.7413 69.3961 85.7681 69.5273C86.2793 69.6042 86.7949 69.6222 87.3106 69.5725C87.8263 69.5227 88.3284 69.387 88.8214 69.2332C89.7985 68.8849 90.7077 68.3331 91.54 67.6862Z" fill="#BC6048"/>
<path d="M87.8863 65.7139C87.8863 65.7139 86.0905 65.7591 84.9777 64.4745C84.5978 65.1213 84.3173 66.5869 85.5115 67.1795C86.9499 67.8942 87.8863 65.7139 87.8863 65.7139Z" fill="white"/>
<path d="M89.7772 58.9288C89.7772 58.9288 89.7184 61.6112 90.7859 62.8823C90.7859 62.8823 90.3245 63.2261 89.542 63.6603" stroke="#E26B48" stroke-width="0.51" stroke-linecap="round" stroke-linejoin="round"/>
<path d="M84.616 59.6615C84.6432 60.2043 84.9779 60.634 85.3669 60.6114C85.7559 60.5933 86.0454 60.1364 86.0183 59.5891C85.9911 59.0418 85.6564 58.6166 85.2674 58.6392C84.8784 58.6573 84.5889 59.1141 84.616 59.6615Z" fill="#382B28"/>
<path d="M87.0043 55.7261C87.0043 55.7261 84.8783 54.93 83.5303 55.7397C83.5303 55.7397 85.0411 54.5003 87.0043 55.7261Z" stroke="#4C0702" stroke-width="0.75" stroke-linecap="round" stroke-linejoin="round"/>
<path d="M93.3503 60.2134C93.2825 60.7562 92.9161 61.1542 92.5316 61.109C92.1471 61.0638 91.8893 60.5843 91.9571 60.0415C92.025 59.4987 92.3914 59.1006 92.7759 59.1458C93.1604 59.1911 93.4182 59.6706 93.3503 60.2134Z" fill="#382B28"/>
<path d="M91.415 55.9796C91.415 55.9796 93.3873 55.5996 94.4367 56.4591C94.4367 56.4591 93.3194 55.2196 91.415 55.9796Z" stroke="#4C0702" stroke-width="0.75" stroke-linecap="round" stroke-linejoin="round"/>
<path d="M85.6788 62.8462C85.6245 63.3799 84.7379 63.7282 83.702 63.6197C82.6662 63.5111 81.87 62.9909 81.9288 62.4526C81.9831 61.9189 82.8697 61.5706 83.9056 61.6791C84.9414 61.7877 85.7376 62.3079 85.6788 62.8462Z" fill="#EA7754"/>
<path d="M94.2147 62.6426C94.0473 63.2714 93.8528 63.8956 93.6357 64.5018C92.8441 64.3073 92.2922 63.8685 92.342 63.4252C92.4008 62.9095 93.2195 62.5703 94.2192 62.6426H94.2147Z" fill="#EA7754"/>
<path d="M80.8557 57.2281C80.539 57.6217 80.236 58.0333 79.9917 58.4766C79.7882 58.8385 79.3449 59.5758 79.4082 60.0146C79.4082 60.001 79.1051 58.3318 78.3723 58.0197C77.436 57.6217 76.4272 58.2595 76.0563 59.0646C75.509 60.2588 75.5542 60.0553 74.8712 58.7525C73.478 56.1018 73.0256 53.3515 74.0615 50.5063C75.0612 47.7651 77.151 45.4763 79.7972 44.2414C82.8415 42.821 86.3562 42.9205 89.5316 43.8297C91.2279 44.3137 93.8063 45.2953 95.3759 44.0107C96.0137 43.4905 96.068 42.6401 95.9368 41.8801C95.9458 41.9208 96.0499 42.0023 96.0815 42.0339C98.1849 44.2685 98.7911 47.4575 98.4971 50.4294C98.2347 53.0666 97.5245 55.8801 95.7604 57.9473C95.6337 58.0921 95.0185 58.5851 95.005 58.7525C95.1497 56.1606 95.0547 54.3286 94.4893 53.1525C93.7927 53.5687 92.603 53.1525 91.9743 52.8178C91.4993 52.5645 90.9113 51.696 90.4499 52.1393C90.2327 52.3473 90.1332 52.7273 89.9116 52.9625C89.699 53.1842 89.4502 53.3696 89.1833 53.5189C88.5319 53.8763 87.7901 54.0255 87.0618 54.1748C86.3471 54.3196 85.6279 54.4643 84.9132 54.6091C84.1171 54.7674 83.3029 54.9393 82.6243 55.3826C82.1268 55.7128 81.7332 56.1696 81.3487 56.6265C81.1814 56.8255 81.014 57.02 80.8512 57.2236L80.8557 57.2281Z" fill="#4C0702"/>
<path d="M85.7549 77.9952C85.7549 77.9952 89.6541 72.3952 89.9798 72.0695C90.8211 72.0333 92.5672 73.5848 92.9471 74.6569C93.3271 75.7289 92.9833 80.3247 91.7982 81.4013C90.6085 82.4734 89.5003 80.9399 88.8489 80.0217C88.1975 79.1034 87.5778 77.864 85.7549 77.9997V77.9952Z" fill="white"/>
<path d="M101.147 90.2628C102.102 96.8806 102.427 103.652 102.893 110.324C103.305 116.214 103.671 122.103 103.938 128.002C103.997 129.277 104.047 130.557 104.092 131.833C104.16 133.787 104.576 133.986 102.848 135.352C102.065 135.967 101.075 136.18 100.111 136.23C96.7233 136.397 93.5026 134.746 90.1507 134.194C84.6819 133.294 78.426 133.231 73.5407 135.126C69.9084 136.533 65.6654 136.266 62.1055 134.543C60.7711 133.896 59.9976 133.326 59.7262 131.774C59.4276 130.073 60.0609 128.156 60.1061 126.446C60.1695 124.107 60.2328 121.768 60.2916 119.434L68.47 95.51C68.47 95.51 72.4144 85.8615 72.5682 85.3187C72.722 84.7759 74.3685 81.6456 74.5992 81.0621C74.8299 80.4786 78.3944 78.0224 78.3944 78.0224L81.6512 77.0996L85.175 77.3077L91.7792 74.9193C91.7792 74.9193 100.233 83.9074 101.152 90.2718L101.147 90.2628Z" fill="white"/>
<path d="M79.7293 71.2644C79.7293 71.2644 76.685 71.3232 75.1696 73.4492C73.6588 75.5752 77.1645 80.5012 79.5212 81.7633C81.8779 83.0253 82.4478 80.2253 83.3028 78.7914C84.1577 77.362 85.6459 78.036 85.6459 78.036L79.7247 71.2644H79.7293Z" fill="white"/>
<path d="M58.2023 100.626C58.2023 100.626 57.284 107.891 57.5147 112.247C57.7454 116.603 66.7606 133.136 67.222 134.511C67.6834 135.891 68.2036 139.012 68.2036 139.012C68.2036 139.012 72.9079 138.437 74.8078 134.932C74.6404 133.38 73.1432 132.453 72.6863 130.331C72.2294 128.21 68.3212 115.883 67.516 112.794C66.7108 109.704 68.8957 98.6899 68.8957 98.6899L58.2068 100.626H58.2023Z" fill="#F9A58C"/>
<path d="M75.9156 72.644C75.9156 72.644 65.4032 76.0728 62.0694 80.3248C58.7356 84.5768 55.5557 100.744 55.5557 100.744C55.5557 100.744 64.978 105.801 70.0352 102.698C71.2972 97.6405 71.6455 91.6651 71.6455 91.6651L78.5392 79.7142L75.9111 72.6486L75.9156 72.644Z" fill="white"/>
<path d="M75.7618 72.7028C75.2371 73.3225 75.0697 74.1593 75.1511 74.9373C75.219 75.7244 75.4678 76.4889 75.807 77.2081C76.4855 78.6375 77.44 79.9538 78.6342 80.9897C79.2222 81.4963 79.9188 81.9622 80.6742 81.9758C81.0497 81.9667 81.398 81.7858 81.6694 81.5144C81.9408 81.243 82.1534 80.9128 82.3479 80.569C82.5424 80.2252 82.7052 79.8588 82.8771 79.497C83.0581 79.1396 83.1983 78.7596 83.4787 78.443C83.7592 78.1309 84.1573 77.9635 84.5598 77.9047C84.9624 77.8504 85.3695 77.8866 85.754 77.9907C85.365 77.9047 84.9579 77.8911 84.5689 77.959C84.1799 78.0314 83.8135 78.2123 83.5692 78.5154C83.325 78.8094 83.1847 79.1939 83.0174 79.5558C82.8545 79.9222 82.7007 80.2931 82.5107 80.6504C82.3253 81.0078 82.1081 81.3606 81.8141 81.6592C81.5246 81.9577 81.1175 82.1748 80.6833 82.1884C79.8102 82.1793 79.0865 81.6818 78.4758 81.1661C77.2681 80.085 76.2955 78.7551 75.6396 77.2805C75.3185 76.5432 75.0833 75.7516 75.038 74.9419C74.9928 74.1367 75.2099 73.2908 75.7663 72.6982L75.7618 72.7028Z" fill="#AFAFAF"/>
<path d="M85.7545 77.9953C86.0124 80.0172 86.2702 82.0437 86.4918 84.0747C86.5461 84.5814 86.5959 85.0925 86.6321 85.5991C86.6728 86.1148 86.6321 86.6214 86.6502 87.1326C86.6547 88.1503 86.6728 89.1726 86.6999 90.1904C86.7542 92.2305 86.8356 94.266 86.9668 96.3016C87.1025 98.3371 87.2789 100.368 87.6046 102.377C87.7675 103.372 88.0162 104.376 88.1248 105.394C88.1927 105.9 88.2469 106.411 88.2876 106.918C88.3374 107.425 88.3781 107.936 88.4098 108.447C88.5545 110.483 88.6405 112.527 88.6948 114.567C88.7536 116.607 88.7943 118.647 88.8124 120.687C88.8169 122.727 88.8124 124.767 88.7852 126.808C88.7717 124.767 88.74 122.727 88.6948 120.687C88.6586 118.647 88.6088 116.607 88.5364 114.567C88.4641 112.527 88.3645 110.492 88.2107 108.461C88.1746 107.954 88.1293 107.443 88.0796 106.936C88.0343 106.43 87.9801 105.923 87.9032 105.421C87.7901 104.412 87.5368 103.43 87.3649 102.413C87.0482 100.386 86.8899 98.3507 86.7633 96.3106C86.6411 94.2705 86.5733 92.2305 86.5326 90.1904C86.5099 89.1681 86.5009 88.1503 86.5009 87.128C86.4918 86.6169 86.5326 86.1012 86.4964 85.6037C86.4647 85.097 86.4149 84.5904 86.3697 84.0793C86.1842 82.0482 85.9671 80.0172 85.75 77.9907L85.7545 77.9953Z" fill="#AFAFAF"/>
<path d="M71.0761 89.0188C71.0489 91.3122 70.972 93.601 70.8725 95.8899C70.7775 98.1788 70.6599 100.468 70.5107 102.756V102.793L70.479 102.811C70.1035 103.019 69.701 103.145 69.2984 103.259C68.8913 103.363 68.4796 103.439 68.0635 103.48C68.4751 103.412 68.8822 103.313 69.2758 103.186C69.6693 103.055 70.0583 102.897 70.4066 102.693L70.3749 102.747C70.4383 100.459 70.5287 98.1652 70.6464 95.8763C70.7594 93.5875 70.8951 91.2986 71.0761 89.0143V89.0188Z" fill="#AFAFAF"/>
<path d="M84.854 79.1849C85.1763 79.1849 85.4376 78.9662 85.4376 78.6964C85.4376 78.4266 85.1763 78.2079 84.854 78.2079C84.5318 78.2079 84.2705 78.4266 84.2705 78.6964C84.2705 78.9662 84.5318 79.1849 84.854 79.1849Z" fill="#AFAFAF"/>
<path d="M85.9483 87.1779C85.9483 87.4493 85.6859 87.6664 85.3648 87.6664C85.0436 87.6664 84.7812 87.4493 84.7812 87.1779C84.7812 86.9065 85.0436 86.6893 85.3648 86.6893C85.6859 86.6893 85.9483 86.9065 85.9483 87.1779Z" fill="#AFAFAF"/>
<path d="M86.3428 95.8764C86.3428 96.1478 86.0805 96.3649 85.7593 96.3649C85.4381 96.3649 85.1758 96.1478 85.1758 95.8764C85.1758 95.6049 85.4381 95.3878 85.7593 95.3878C86.0805 95.3878 86.3428 95.6049 86.3428 95.8764Z" fill="#AFAFAF"/>
<path d="M87.2745 104.57C87.2745 104.842 87.0121 105.059 86.6909 105.059C86.3698 105.059 86.1074 104.842 86.1074 104.57C86.1074 104.299 86.3698 104.082 86.6909 104.082C87.0121 104.082 87.2745 104.299 87.2745 104.57Z" fill="#AFAFAF"/>
<path d="M87.8624 113.264C87.8624 113.536 87.6 113.753 87.2788 113.753C86.9577 113.753 86.6953 113.536 86.6953 113.264C86.6953 112.993 86.9577 112.776 87.2788 112.776C87.6 112.776 87.8624 112.993 87.8624 113.264Z" fill="#AFAFAF"/>
<path d="M88.21 121.809C88.21 122.081 87.9477 122.298 87.6265 122.298C87.3053 122.298 87.043 122.081 87.043 121.809C87.043 121.538 87.3053 121.321 87.6265 121.321C87.9477 121.321 88.21 121.538 88.21 121.809Z" fill="#AFAFAF"/>
<path d="M100.953 90.6292C101.175 91.7057 101.36 92.7914 101.537 93.8725C101.713 94.9581 101.858 96.0482 102.007 97.1338C102.274 99.3141 102.514 101.503 102.6 103.702L101.767 97.1655C101.5 94.9852 101.197 92.8094 100.953 90.6246V90.6292Z" fill="#AFAFAF"/>
<path d="M103.83 94.6504C103.79 95.3651 103.717 96.0753 103.64 96.7854C103.563 97.4956 103.464 98.2013 103.369 98.9115C103.256 99.6171 103.152 100.323 103.021 101.024C102.889 101.725 102.749 102.426 102.555 103.118L103.134 98.8798C103.351 97.4685 103.55 96.0572 103.835 94.6549L103.83 94.6504Z" fill="#AFAFAF"/>
<path d="M72.7225 91.5067C72.6003 92.2214 72.4465 92.9271 72.2928 93.6372C72.139 94.3429 71.9671 95.044 71.8042 95.7497C71.6233 96.4508 71.4514 97.1519 71.2614 97.8486C71.0714 98.5452 70.8769 99.2418 70.6553 99.9339C70.7774 99.2192 70.9312 98.5135 71.0805 97.8033C71.2343 97.0977 71.4062 96.3965 71.569 95.6909C71.7499 94.9898 71.9218 94.2886 72.1118 93.592C72.3018 92.8954 72.4963 92.1988 72.718 91.5067H72.7225Z" fill="#AFAFAF"/>
<path d="M63.1465 79.1849C64.0105 79.0582 64.9016 79.212 65.7294 79.5106C66.5572 79.8136 67.3035 80.3112 67.9639 80.8947L68.4298 81.3606C68.5791 81.5235 68.7103 81.6999 68.8505 81.8673C69.1445 82.1975 69.3572 82.582 69.5969 82.9484C69.814 83.3283 69.9995 83.7264 70.1985 84.1109C70.3523 84.518 70.5106 84.9251 70.6554 85.3322C70.4609 84.9432 70.2799 84.5497 70.0899 84.1606C69.8728 83.7897 69.6738 83.4052 69.4386 83.0433C68.9546 82.3332 68.4434 81.632 67.8011 81.0711C67.1723 80.4921 66.4531 80.0127 65.6615 79.6824C64.8744 79.3522 64.015 79.1577 63.1465 79.1849Z" fill="#AFAFAF"/>
<path d="M111.99 106.398C111.637 106.733 111.271 107.04 110.9 107.348C110.529 107.655 110.149 107.949 109.765 108.239C109.38 108.524 108.991 108.813 108.593 109.08C108.195 109.352 107.797 109.623 107.381 109.867C107.734 109.533 108.1 109.225 108.471 108.917C108.842 108.61 109.222 108.316 109.606 108.026C109.991 107.741 110.38 107.452 110.778 107.185C111.176 106.914 111.574 106.642 111.99 106.398Z" fill="#BC6048"/>
<path d="M121.985 98.6895C122.732 97.8391 122.732 96.8032 123.22 95.5412C123.709 94.2792 126.436 91.1173 126.839 90.0543C127.242 88.9913 128.852 89.8236 128.047 91.8049C127.242 93.7861 126.812 94.2475 126.694 94.6501C128.476 92.2075 130.688 88.9325 131.494 88.6747C132.299 88.4168 132.787 89.4527 130.345 92.5512L128.906 94.736C128.906 94.736 132.986 90.769 133.85 90.4569C134.714 90.1448 135.085 91.2032 133.362 92.9583C131.638 94.7089 129.856 96.9797 129.856 96.9797C129.856 96.9797 133.421 92.0356 134.741 92.8407C135.23 93.1845 131.295 97.8979 131.295 97.8979C132.787 96.1745 133.62 95.0255 134.398 95.7448C135.171 96.464 130.951 100.657 129.802 101.548C128.653 102.439 127.671 102.657 126.726 103.118C125.785 103.579 125.894 103.706 125.894 103.706L122.904 103.118L121.985 98.694V98.6895Z" fill="#F9A58C"/>
<path d="M126.698 98.884C126.784 98.5357 126.87 98.1874 126.897 97.8346C126.938 97.4817 126.956 97.1244 126.938 96.7715C126.911 96.0659 126.807 95.3512 126.59 94.6908L126.576 94.641L126.594 94.6048L127.083 93.6549L127.553 92.7095C127.707 92.3929 127.856 92.0762 127.983 91.746C128.114 91.4203 128.236 91.0901 128.268 90.7373C128.291 91.0947 128.187 91.443 128.087 91.7822C127.978 92.1215 127.847 92.4517 127.712 92.7774C127.58 93.1076 127.422 93.4242 127.268 93.7454L126.802 94.6863V94.6048C126.915 94.9622 126.988 95.315 127.042 95.6724C127.092 96.0297 127.124 96.3961 127.114 96.758C127.11 97.4817 126.974 98.21 126.698 98.875V98.884Z" fill="#BC6048"/>
<path d="M92.9468 74.6523C93.1368 75.2359 93.1503 75.8556 93.1639 76.4662C93.1639 77.0769 93.1232 77.6876 93.0463 78.2937C92.9739 78.8998 92.8518 79.506 92.6663 80.094C92.5668 80.3881 92.4583 80.6776 92.2954 80.9535L92.1688 81.157L92.0104 81.3425C91.9109 81.4692 91.7843 81.5596 91.6486 81.6637C91.3772 81.8446 91.0153 81.9305 90.6896 81.8536C90.3639 81.7767 90.088 81.5913 89.8528 81.3877C89.3823 80.9671 89.025 80.4649 88.6857 79.9538C88.3555 79.4291 88.1248 78.8637 87.7041 78.4385C87.4961 78.2259 87.2428 78.063 86.9533 77.9725C86.6683 77.8821 86.3607 77.8595 86.0576 77.864C86.6547 77.7916 87.3196 77.9092 87.7856 78.3525C88.247 78.7822 88.5048 79.3612 88.8395 79.8498C89.1923 80.3338 89.5452 80.8359 89.993 81.2204C90.2146 81.4103 90.468 81.5687 90.7348 81.6275C91.0062 81.6863 91.2822 81.6184 91.5129 81.4601C91.9924 81.1389 92.2638 80.5961 92.4537 80.0262C92.6437 79.4608 92.7568 78.8637 92.8563 78.2666C92.9513 77.6695 93.0101 77.0679 93.0373 76.4617C93.0599 75.8601 93.0734 75.2449 92.9377 74.6523H92.9468Z" fill="#AFAFAF"/>
</g>
</svg>
