<svg width="24" height="25" viewBox="0 0 24 25" fill="none" xmlns="http://www.w3.org/2000/svg">
<g clip-path="url(#clip0_0_590)">
<path d="M10 12.9451C10 13.4755 10.2107 13.9842 10.5858 14.3593C10.9609 14.7344 11.4696 14.9451 12 14.9451C12.5304 14.9451 13.0391 14.7344 13.4142 14.3593C13.7893 13.9842 14 13.4755 14 12.9451C14 12.4146 13.7893 11.9059 13.4142 11.5309C13.0391 11.1558 12.5304 10.9451 12 10.9451C11.4696 10.9451 10.9609 11.1558 10.5858 11.5309C10.2107 11.9059 10 12.4146 10 12.9451Z" stroke="#9DA2AD" stroke-width="2" stroke-linecap="round" stroke-linejoin="round"/>
<path d="M21 12.9451C18.6 16.9451 15.6 18.9451 12 18.9451C8.4 18.9451 5.4 16.9451 3 12.9451C5.4 8.94507 8.4 6.94507 12 6.94507C15.6 6.94507 18.6 8.94507 21 12.9451Z" stroke="#9DA2AD" stroke-width="2" stroke-linecap="round" stroke-linejoin="round"/>
</g>
<defs>
<clipPath id="clip0_0_590">
<rect width="24" height="24" fill="white" transform="translate(0 0.945068)"/>
</clipPath>
</defs>
</svg>
