<svg width="62" height="63" viewBox="0 0 62 63" fill="none" xmlns="http://www.w3.org/2000/svg">
<path d="M31 21.4448H31.0333M27.6667 31.4448H31V44.7782H34.3333M1 8.11149C1 6.34338 1.70238 4.64769 2.95262 3.39745C4.20286 2.1472 5.89856 1.44482 7.66667 1.44482H54.3333C56.1014 1.44482 57.7971 2.1472 59.0474 3.39745C60.2976 4.64769 61 6.34338 61 8.11149V54.7782C61 56.5463 60.2976 58.242 59.0474 59.4922C57.7971 60.7424 56.1014 61.4448 54.3333 61.4448H7.66667C5.89856 61.4448 4.20286 60.7424 2.95262 59.4922C1.70238 58.242 1 56.5463 1 54.7782V8.11149Z" stroke="black" stroke-width="2" stroke-linecap="round" stroke-linejoin="round"/>
</svg>
