<svg width="212" height="62" viewBox="0 0 212 62" fill="none" xmlns="http://www.w3.org/2000/svg">
<path d="M120.739 60.9509V54.7675H107.668V50.1112H120.454V43.9278H107.668V39.6383H120.739V33.4549H100.571V60.9584H120.739V60.9509ZM138.346 61.445C143.541 61.445 147.583 59.3414 150.51 56.085V45.1555H137.23V51.3838H143.414V53.5248C142.425 54.3483 140.359 55.1717 138.338 55.1717C133.847 55.1717 130.665 51.7057 130.665 47.2141C130.665 42.7225 133.839 39.2565 138.338 39.2565C141.018 39.2565 143.122 40.9483 144.155 42.7599L150.091 39.6682C148.197 36.2471 144.484 32.9907 138.338 32.9907C130.133 32.9907 123.448 38.478 123.448 47.2141C123.448 55.9503 130.126 61.4375 138.338 61.4375L138.346 61.445ZM161.769 60.9509V33.4474H154.68V60.9509H161.769ZM190.186 60.9509L184.579 50.8448C187.177 49.939 190.066 47.3788 190.066 42.5953C190.066 37.4823 186.6 33.4399 180.499 33.4399H166.725V60.9435H173.814V51.7057H177.445L182.064 60.9435H190.186V60.9509ZM179.421 45.5298H173.814V39.6308H179.421C181.315 39.6308 182.842 40.6638 182.842 42.5578C182.842 44.4518 181.315 45.5298 179.421 45.5298ZM212 60.9509V54.7675H200.951V33.4474H193.854V60.9509H212Z" fill="black"/>
<path d="M144.596 27.9676V25.8191H129.497V14.9345H144.304V12.786H129.497V2.60502H144.596V0.456543H127.146V27.9676H144.596Z" fill="black"/>
<path d="M159.425 27.9676V2.60502H168.416V0.456543H148.039V2.60502H157.03V27.9676H159.425Z" fill="black"/>
<path d="M66.5395 50.0288C59.4128 54.1461 51.1557 56.4967 42.3672 56.4967C33.5786 56.4967 25.3216 54.1386 18.1949 50.0288C10.8137 45.7692 4.66769 39.6307 0.415643 32.272C-0.115862 31.3437 -0.160778 30.1684 0.415643 29.1802C4.66769 21.8215 10.8212 15.683 18.1949 11.4235C25.3216 7.30618 33.5786 4.95557 42.3672 4.95557C51.1557 4.95557 59.4128 7.31367 66.5395 11.4235C73.9207 15.683 80.0667 21.8215 84.3187 29.1802C84.8502 30.1085 84.8951 31.2838 84.3187 32.272C80.0667 39.6307 73.9132 45.7692 66.5395 50.0288ZM54.0304 19.0667C51.0434 16.0798 46.9262 14.2382 42.3672 14.2382C37.8082 14.2382 33.6909 16.0873 30.704 19.0667C27.7171 22.0536 25.8755 26.1784 25.8755 30.7299C25.8755 35.2813 27.7246 39.4061 30.704 42.3931C33.6909 45.38 37.8157 47.2215 42.3672 47.2215C46.9187 47.2215 51.0434 45.3725 54.0304 42.3931C57.0173 39.4061 58.8588 35.2888 58.8588 30.7299C58.8588 26.1709 57.0098 22.0536 54.0304 19.0667ZM27.0733 13.9837C25.0521 14.7622 23.1132 15.698 21.2641 16.7685C15.3652 20.1746 10.357 24.9806 6.6964 30.7299C10.357 36.4791 15.3652 41.2851 21.2641 44.6913C23.1132 45.7618 25.0595 46.69 27.0808 47.476C26.8262 47.244 26.5792 47.0119 26.3397 46.7649C22.2373 42.6626 19.6996 36.9882 19.6996 30.7299C19.6996 24.4716 22.2373 18.7972 26.3397 14.6949C26.5792 14.4553 26.8262 14.2157 27.0808 13.9837H27.0733ZM57.6611 47.476C59.6823 46.6975 61.6212 45.7618 63.4702 44.6913C69.3767 41.2851 74.3773 36.4791 78.038 30.7299C74.3773 24.9806 69.3692 20.1746 63.4702 16.7685C61.6212 15.698 59.6823 14.7697 57.6611 13.9912C57.9156 14.2232 58.1626 14.4553 58.4022 14.6949C62.5045 18.7972 65.0423 24.4716 65.0423 30.7299C65.0423 36.9882 62.5045 42.6626 58.4022 46.7649C58.1626 47.0044 57.9156 47.244 57.6611 47.476Z" fill="black"/>
<path fill-rule="evenodd" clip-rule="evenodd" d="M44.8825 31.4635C46.4321 30.5877 47.4801 28.9183 47.4801 27.0094C47.4801 24.1797 45.1894 21.8889 42.3597 21.8889C39.53 21.8889 37.2393 24.1797 37.2393 27.0094C37.2393 28.9183 38.2873 30.5877 39.8369 31.4635L37.666 39.5633H47.0534L44.8825 31.4635Z" fill="black"/>
<path fill-rule="evenodd" clip-rule="evenodd" d="M119.689 14.9346H109.299V12.7861H122.04V23.9178C119.607 26.6427 115.939 28.4917 111.604 28.4917C103.849 28.4917 97.6655 22.72 97.6655 14.2234C97.6655 5.72679 103.849 0 111.604 0C116.141 0 119.442 1.81163 121.958 4.70123L120.183 5.98131C118.245 3.66813 115.108 2.14848 111.604 2.14848C105.174 2.14848 100.143 7.0593 100.143 14.2309C100.143 21.4025 105.174 26.3582 111.604 26.3582C115.273 26.3582 118.2 24.5466 119.689 23.0194V14.9346Z" fill="black"/>
</svg>
